<?xml version="1.0" encoding="utf-8"?>
<!-- Generator: Adobe Illustrator 26.0.0, SVG Export Plug-In . SVG Version: 6.00 Build 0)  -->
<svg version="1.1" id="Capa_1" xmlns="http://www.w3.org/2000/svg" xmlns:xlink="http://www.w3.org/1999/xlink" x="0px" y="0px"
	 viewBox="0 0 595.28 841.89" style="enable-background:new 0 0 595.28 841.89;" xml:space="preserve">
<style type="text/css">
	.st0{fill:#FFFFFF;}
</style>
<g>
	<path class="st0" d="M-338.72,372.99l0.04-0.04l-0.01-0.01l11.85-7.15l-13.04-5.67l7.37-11.15h-13.98l2.65-13.42l-13.04,7.37
		l-3.4-14.74l-8.03,12.64l-0.06-0.07l0,0l-7.99-12.58l-3.4,14.74l-13.04-7.37l2.65,13.42h-13.98l7.37,11.15l-13.04,5.67l11.85,7.15
		l-0.01,0.01l0.04,0.04l-11.88,7.17l13.04,5.67l-7.37,11.15h13.98l-2.65,13.42l13.04-7.37l3.4,14.74l7.99-12.58l0,0l0.06-0.07
		l8.03,12.64l3.4-14.74l13.04,7.37l-2.65-13.42h13.98l-7.37-11.15l13.04-5.67L-338.72,372.99z M-368.33,399.54
		c-14.67,0-26.56-11.89-26.56-26.56s11.89-26.56,26.56-26.56s26.56,11.89,26.56,26.56S-353.66,399.54-368.33,399.54z"/>
	<text transform="matrix(1 0 0 1 -403.9859 429.2227)" class="st0" style="font-family:'MyriadPro-Regular'; font-size:12px;">Vista Hermosa</text>
	<text transform="matrix(1 0 0 1 -401.9818 440.9135)" class="st0" style="font-family:'MyriadPro-Regular'; font-size:12px;">Casa de Playa</text>
</g>
</svg>
